<?xml version="1.0" standalone="no"?>
<!DOCTYPE svg PUBLIC "-//W3C//DTD SVG 20010904//EN"
 "http://www.w3.org/TR/2001/REC-SVG-20010904/DTD/svg10.dtd">
<svg version="1.0" xmlns="http://www.w3.org/2000/svg"
 width="512.000000pt" height="512.000000pt" viewBox="0 0 512.000000 512.000000"
 preserveAspectRatio="xMidYMid meet">

<g transform="translate(0.000000,512.000000) scale(0.100000,-0.100000)"
fill="#000000" stroke="none">
<path d="M1314 4360 c-109 -22 -206 -101 -257 -208 -28 -59 -32 -77 -32 -152
1 -72 5 -95 30 -150 27 -61 70 -106 639 -678 l610 -612 -610 -613 c-570 -571
-612 -616 -639 -677 -25 -55 -29 -78 -30 -150 0 -75 4 -93 32 -152 39 -84 97
-141 181 -181 l67 -32 1340 -3 c1262 -2 1342 -1 1375 15 19 10 45 33 57 52 23
34 23 36 23 390 0 338 -1 358 -20 389 -41 66 -62 72 -281 72 -187 0 -198 -1
-230 -23 -55 -36 -69 -76 -69 -194 l0 -103 -777 0 -778 0 567 568 c500 500
567 571 573 604 17 94 42 65 -573 681 l-567 567 777 0 776 0 4 -109 c2 -92 6
-114 24 -138 41 -56 70 -63 274 -63 208 0 236 7 277 69 23 34 23 37 23 386 0
349 0 352 -23 386 -12 19 -38 42 -57 51 -33 17 -117 18 -1350 17 -723 -1
-1334 -5 -1356 -9z"/>
</g>
</svg>
